<svg style="object-fit:cover" id="my-svg" version="1" baseProfile="full" width="100%" height="100%" viewBox="0 0 1366 625" xmlns="http://www.w3.org/2000/svg"><rect width="1366" height="625" fill="#ffffff"/><path transform="scale(1, -1)" d="M 0,625 V 0,62 C 29.65390102570187,71.00974821105717 59.30780205140374,80.01949642211436 111,76 C 162.69219794859626,71.98050357788564 236.42269282008692,54.93176252259973 293,57 C 349.5773071799131,59.06823747740027 389.0014266682486,80.2534534874867 433,80 C 476.9985733317514,79.7465465125133 525.5716005069187,58.05442352745347 571,58 C 616.4283994930813,57.94557647254653 658.7121713040764,79.5288524026994 698,85 C 737.2878286959236,90.4711475973006 773.5797142767758,79.83016686174895 813,71 C 852.4202857232242,62.16983313825106 894.96897158882,55.15048015030484 944,56 C 993.03102841118,56.84951984969516 1048.5443993679448,65.5679125370317 1089,65 C 1129.4556006320552,64.4320874629683 1154.8534309393995,54.57786970156839 1209,55 C 1263.1465690606005,55.42213029843161 1346.0418768744573,66.12060865669474 1377,69 C 1407.9581231255427,71.87939134330526 1386.9790615627712,66.93969567165263 1366,62 C 1366,62 1366,625 1366,625 Z" stroke="none" stroke-width="0" fill="#ff4363ff" class="transition-all duration-300 ease-in-out delay-150" style="transform-origin: center center;"/></svg>